{
  "asset": {
    "version": "2.0",
    "generator": "Sketchup glTF Exporter v1.2.6 by Centaur"
  },
  "scene": 0,
  "scenes": [
    {
      "nodes": [
        0
      ]
    }
  ],
  "samplers": [
    {
    }
  ],
  "nodes": [
    {
      "name": "root",
      "mesh": 0
    }
  ],
  "materials": [
    {
      "pbrMetallicRoughness": {
        "baseColorFactor": [
          0.0,
          0.1247,
          0.2888,
          1.0
        ],
        "metallicFactor": 0.1,
        "roughnessFactor": 0.9
      },
      "name": "0013_Светло-коралловый"
    },
    {
      "pbrMetallicRoughness": {
        "baseColorFactor": [
          0.2176,
          0.2176,
          0.2176,
          1.0
        ],
        "metallicFactor": 0.1,
        "roughnessFactor": 0.9
      },
      "name": "default material",
      "doubleSided": true
    }
  ],
  "meshes": [
    {
      "primitives": [
        {
          "attributes": {
            "POSITION": 0,
            "NORMAL": 1
          },
          "indices": 2,
          "mode": 4,
          "material": 0
        },
        {
          "attributes": {
            "POSITION": 0,
            "NORMAL": 1
          },
          "indices": 3,
          "mode": 4,
          "material": 1
        }
      ]
    }
  ],
  "accessors": [
    {
      "bufferView": 0,
      "componentType": 5126,
      "count": 237,
      "type": "VEC3",
      "min": [
        -0.20769168913602717,
        0.04452186609188968,
        -0.3398276954797866
      ],
      "max": [
        0.1952145492199992,
        0.1137644056333118,
        0.19068649583409608
      ]
    },
    {
      "bufferView": 1,
      "componentType": 5126,
      "count": 237,
      "type": "VEC3",
      "min": [
        -1.0,
        -0.999701489781183,
        -0.999701489781183
      ],
      "max": [
        1.0,
        0.9997014897811832,
        0.9997014897811832
      ]
    },
    {
      "bufferView": 2,
      "componentType": 5121,
      "count": 402,
      "type": "SCALAR"
    },
    {
      "bufferView": 2,
      "componentType": 5121,
      "count": 75,
      "type": "SCALAR",
      "byteOffset": 402
    }
  ],
  "bufferViews": [
    {
      "buffer": 0,
      "byteLength": 2844,
      "target": 34962,
      "byteStride": 12
    },
    {
      "buffer": 0,
      "byteOffset": 2844,
      "byteLength": 2844,
      "target": 34962,
      "byteStride": 12
    },
    {
      "buffer": 0,
      "byteOffset": 5688,
      "byteLength": 477,
      "target": 34963
    }
  ],
  "buffers": [
    {
      "uri": "data:application/octet-stream;base64,",
      "byteLength": 6165
    }
  ]
}